<svg xmlns="http://www.w3.org/2000/svg" width="50" height="76.462" viewBox="0 0 50 76.462">
  <path id="Icon_awesome-file-alt" data-name="Icon awesome-file-alt" d="M29.167,20.31V0H3.125A3.37,3.37,0,0,0,0,3.584V72.878a3.37,3.37,0,0,0,3.125,3.584h43.75A3.37,3.37,0,0,0,50,72.878V23.894H32.292A3.388,3.388,0,0,1,29.167,20.31ZM37.5,55.554a1.694,1.694,0,0,1-1.562,1.792H14.063A1.694,1.694,0,0,1,12.5,55.554V54.36a1.694,1.694,0,0,1,1.563-1.792H35.937A1.694,1.694,0,0,1,37.5,54.36ZM37.5,46a1.694,1.694,0,0,1-1.562,1.792H14.063A1.694,1.694,0,0,1,12.5,46V44.8a1.694,1.694,0,0,1,1.563-1.792H35.937A1.694,1.694,0,0,1,37.5,44.8Zm0-10.752v1.195a1.694,1.694,0,0,1-1.562,1.792H14.063A1.694,1.694,0,0,1,12.5,36.439V35.244a1.694,1.694,0,0,1,1.563-1.792H35.937A1.694,1.694,0,0,1,37.5,35.244ZM50,18.2v.911H33.333V0h.794a2.933,2.933,0,0,1,2.214,1.045L49.089,15.681A3.856,3.856,0,0,1,50,18.2Z"/>
</svg>
