<svg xmlns="http://www.w3.org/2000/svg" width="14.254" height="19.005" viewBox="0 0 14.254 19.005"><path d="M8.315,5.048V0H.891A.889.889,0,0,0,0,.891V18.114a.889.889,0,0,0,.891.891H13.363a.889.889,0,0,0,.891-.891V5.939H9.206A.893.893,0,0,1,8.315,5.048Zm2.376,8.76a.447.447,0,0,1-.445.445H4.009a.447.447,0,0,1-.445-.445v-.3a.447.447,0,0,1,.445-.445h6.236a.447.447,0,0,1,.445.445Zm0-2.376a.447.447,0,0,1-.445.445H4.009a.447.447,0,0,1-.445-.445v-.3a.447.447,0,0,1,.445-.445h6.236a.447.447,0,0,1,.445.445Zm0-2.673v.3a.447.447,0,0,1-.445.445H4.009a.447.447,0,0,1-.445-.445v-.3a.447.447,0,0,1,.445-.445h6.236A.447.447,0,0,1,10.69,8.76Zm3.563-4.235v.226H9.5V0h.226a.89.89,0,0,1,.631.26L13.994,3.9A.888.888,0,0,1,14.254,4.525Z"/></svg>