<svg xmlns="http://www.w3.org/2000/svg" width="1418" height="33" viewBox="0 0 1418 33"><g transform="translate(-10928 1473)"><line x2="218" transform="translate(11181.5 -1456.5)" fill="none" stroke="#000" stroke-linecap="square" stroke-width="4"/><circle cx="16.5" cy="16.5" r="16.5" transform="translate(10928 -1473)"/><line x2="220" transform="translate(11416.5 -1456.5)" fill="none" stroke="#000" stroke-linecap="square" stroke-width="4"/><line x2="220" transform="translate(11645.5 -1456.5)" fill="none" stroke="#000" stroke-linecap="square" stroke-width="4"/><line x2="220" transform="translate(11877.5 -1456.5)" fill="none" stroke="#000" stroke-linecap="square" stroke-width="4"/><line x2="220" transform="translate(12097.5 -1456.5)" fill="none" stroke="#000" stroke-linecap="square" stroke-width="4"/><circle cx="16.5" cy="16.5" r="16.5" transform="translate(11851 -1473)"/><circle cx="16.5" cy="16.5" r="16.5" transform="translate(12313 -1473)"/><path d="M2.053,20.3.8,18.747a1.969,1.969,0,0,1,0-2.377l11-13.63a1.178,1.178,0,0,1,1.918,0l11,13.622a1.969,1.969,0,0,1,0,2.377L23.449,20.3a1.186,1.186,0,0,1-1.941-.028l-6.491-8.441s-1.207-1.662-2.339-1.662-2.189,1.662-2.189,1.662l-6.5,8.448a1.179,1.179,0,0,1-1.941.028Z" transform="translate(11647.746 -1469.251) rotate(90)"/><path d="M2.053,20.3.8,18.747a1.969,1.969,0,0,1,0-2.377l11-13.63a1.178,1.178,0,0,1,1.918,0l11,13.622a1.969,1.969,0,0,1,0,2.377L23.449,20.3a1.186,1.186,0,0,1-1.941-.028l-6.491-8.441s-1.207-1.662-2.339-1.662-2.189,1.662-2.189,1.662l-6.5,8.448a1.179,1.179,0,0,1-1.941.028Z" transform="translate(11193.023 -1469.251) rotate(90)"/><path d="M2.053,20.3.8,18.747a1.969,1.969,0,0,1,0-2.377l11-13.63a1.178,1.178,0,0,1,1.918,0l11,13.622a1.969,1.969,0,0,1,0,2.377L23.449,20.3a1.186,1.186,0,0,1-1.941-.028l-6.491-8.441s-1.207-1.662-2.339-1.662-2.189,1.662-2.189,1.662l-6.5,8.448a1.179,1.179,0,0,1-1.941.028Z" transform="translate(12108.746 -1469.251) rotate(90)"/><circle cx="16.5" cy="16.5" r="16.5" transform="translate(11390 -1473)"/><line x2="226" transform="translate(10955.5 -1456.5)" fill="none" stroke="#050505" stroke-linecap="square" stroke-width="4"/></g></svg>